HIERARCHY
ROOT pelvis
{
  OFFSET 0 100 0
  CHANNELS 6 Xposition Yposition Zposition Zrotation Xrotation Yrotation
  JOINT pelvis_right_femur
  {
    OFFSET -10.78128 -3.44521 -0.5502486
    CHANNELS 3 Zrotation Xrotation Yrotation
    JOINT right_femur_tibia
    {
      OFFSET -0.8047443 -44.0398 -0.1307829
      CHANNELS 3 Zrotation Xrotation Yrotation
      JOINT right_tibia_foot
      {
        OFFSET 3.006224 -47.83518 -5
        CHANNELS 3 Zrotation Xrotation Yrotation
        End Site
        {
          OFFSET 0 -5 15
        }
      }
    }
  }
  JOINT pelvis_left_femur
  {
    OFFSET 10.78128 -3.44521 -0.5502486
    CHANNELS 3 Zrotation Xrotation Yrotation
    JOINT left_femur_tibia
    {
      OFFSET 0.8047443 -44.0398 -0.1307829
      CHANNELS 3 Zrotation Xrotation Yrotation
      JOINT left_tibia_foot
      {
        OFFSET -4.370144 -48.10324 -4.275266
        CHANNELS 3 Zrotation Xrotation Yrotation
        End Site
        {
          OFFSET 0 -5 15
        }
      }
    }
  }
  JOINT pelvis_spine1
  {
    OFFSET 0 6.468898 -3.129235
    CHANNELS 3 Zrotation Xrotation Yrotation
    JOINT spine1
    {
      OFFSET 0 23.15396 4.99043
      CHANNELS 3 Zrotation Xrotation Yrotation
      JOINT spine2
      {
        OFFSET 0 20.79997 -5.064912
        CHANNELS 3 Zrotation Xrotation Yrotation
        JOINT neck
        {
          OFFSET 0 14.38658 9.616178
          CHANNELS 3 Zrotation Xrotation Yrotation
          End Site
          {
            OFFSET 0 20 0
          }
        }
      }
      JOINT right_manubrium
      {
        OFFSET -5.722621 16.35077 3.967754
        CHANNELS 3 Zrotation Xrotation Yrotation
        JOINT right_clavicle
        {
          OFFSET -13.16364 1.694482 -4.693211
          CHANNELS 3 Zrotation Xrotation Yrotation
          JOINT right_humerus
          {
            OFFSET -28.5034 -0.3100689 -2.792744
            CHANNELS 3 Zrotation Xrotation Yrotation
            JOINT right_radius
            {
              OFFSET -25.15693 0.02248979 -1.271978
              CHANNELS 3 Zrotation Xrotation Yrotation
              End Site
              {
                OFFSET -15 0 0
              }
            }
          }
        }
      }
      JOINT left_manubrium
      {
        OFFSET 5.722621 16.35077 3.967754
        CHANNELS 3 Zrotation Xrotation Yrotation
        JOINT left_clavicle
        {
          OFFSET 13.16364 1.694482 -4.693211
          CHANNELS 3 Zrotation Xrotation Yrotation
          JOINT left_humerus
          {
            OFFSET 29.39168 -1.063119 -2.237045
            CHANNELS 3 Zrotation Xrotation Yrotation
            JOINT left_radius
            {
              OFFSET 24.59957 -0.9528479 0.9047498
              CHANNELS 3 Zrotation Xrotation Yrotation
              End Site
              {
                OFFSET 15 -0 -0
              }
            }
          }
        }
      }
    }
  }
}
MOTION
Frames: 13
Frame Time: 0.0416666666667
0 103.5113 0 1.600342 -2.879965 0.09588374 1.23852 -11.04673 7.107848 -0 39.60253 -0 -5.783263 -17.36722 -4.281171 -6.850121 12.23466 -23.63975 -0 6.126008 -0 0.1250422 -18.51188 22.61557 -0.1002218 -2.17337 4.589436 -0.3840313 7.63286 -7.316907 1.600767 21.70883 8.312901 5.76455 -21.07354 8.401625 6.345482 -18.19853 10.34397 88.61442 35.324 -24.11367 -0 0 17.76029 -8.047345 9.597613 2.81932 8.211202 -21.96557 -2.383084 -100.1669 41.23778 27.7652 0 0 -25.70363 -10.09031 18.14578 28.94879
0.1586505 103.7082 1.195824 0.8257058 -2.042527 -0.01051731 2.466046 -13.97222 8.615414 -0 40.85239 -0 -5.329954 -16.71185 -5.164181 -6.2656 11.99734 -23.6674 -0 6.47146 -0 -1.290247 -19.62979 22.65645 -0.01284797 -2.141213 4.686408 -0.4662919 7.685934 -7.278751 1.617749 21.67936 8.351579 5.798143 -21.07169 8.443578 6.305895 -18.19406 10.30827 88.72852 35.58463 -24.17017 -0 0 17.60767 -8.230669 9.844804 2.806939 8.276141 -22.09651 -2.348863 -99.99549 41.1376 27.63233 0 0 -25.99029 -9.795314 18.15735 28.75513
0.3048721 103.6506 2.711068 0.1444087 -1.125858 -0.08986753 3.827704 -19.1746 8.108297 -0 37.64659 -0 -5.779904 -14.04025 -4.82275 -5.797878 12.22384 -22.67129 -0 6.305921 -0 -0.8329856 -21.33492 22.19739 -0.1124522 -1.691916 4.210262 0.1963714 7.513375 -7.429603 1.450271 21.77522 8.501153 5.558015 -22.06272 8.761673 6.22525 -17.71153 10.43735 88.9145 35.82507 -24.35111 -0 0 16.07538 -7.752559 9.630235 2.947337 7.649934 -21.68116 -2.530492 -98.75285 40.47174 26.28757 0 0 -26.04812 -8.278092 17.47679 26.75187
0.4382618 103.3681 4.489137 -0.4314671 -0.3732338 -0.1359642 4.955577 -23.40602 7.959337 -0 34.95135 -0 -6.079829 -11.85015 -4.686272 -5.368771 12.48973 -22.00644 -0 6.243871 -0 -1.001742 -22.93227 21.61749 -0.2027826 -1.450865 3.922912 0.595391 7.414957 -7.524815 1.35005 21.82394 8.565332 5.41564 -22.60241 8.906217 6.194735 -17.43957 10.52929 88.94841 35.87242 -24.38885 -0 0 15.25843 -7.492658 9.468034 3.076412 7.282777 -21.41923 -2.633157 -98.05236 40.01864 25.51966 0 0 -25.96262 -7.480661 17.06588 25.63051
0.5638478 102.8293 6.626141 -0.8415441 0.4154047 -0.1125318 5.80905 -27.42478 7.41011 -0 31.17401 -0 -6.430085 -9.566423 -4.277518 -5.086501 12.92748 -21.23819 -0 6.173886 -0 -0.8908515 -24.36678 20.82733 -0.3149212 -1.194043 3.631068 1.022212 7.320797 -7.623026 1.241296 21.87143 8.614856 5.258892 -23.16039 9.027985 6.158041 -17.15597 10.63563 88.93743 35.94006 -24.35689 -0 0 14.38542 -7.314258 9.340849 3.27976 6.879845 -21.14237 -2.729363 -97.26453 39.43954 24.67421 0 0 -25.81995 -6.625732 16.60774 24.41658
0.6819964 102.0654 9.178701 -1.140654 1.229939 0.00325371 6.415395 -30.87877 6.758309 -0 27.08718 -0 -6.71057 -7.492178 -3.824116 -4.89455 13.48787 -20.50046 -0 6.327021 -0 -0.9392388 -25.51203 19.8167 -0.4381951 -0.991695 3.384774 1.388022 7.24106 -7.709437 1.147872 21.91322 8.629556 5.119774 -23.59827 9.087279 6.13416 -16.93079 10.73719 88.86332 35.95696 -24.2585 -0 0 13.70474 -7.219765 9.227964 3.506388 6.526767 -20.89156 -2.803561 -96.62892 38.91909 23.99574 0 0 -25.59933 -6.006989 16.22335 23.47508
0.7918281 101.1464 12.22818 -1.355114 2.094538 0.2326957 6.788073 -33.64476 5.994596 -0 22.85534 -0 -6.896889 -5.679834 -3.340812 -4.77928 14.17339 -19.72857 -0 6.955504 -0 -1.192266 -26.15579 18.53137 -0.5744336 -0.8133291 3.17902 1.717174 7.176715 -7.782824 1.061756 21.95942 8.610769 4.98106 -23.96475 9.094411 6.106137 -16.74519 10.83861 88.73672 35.9887 -24.07781 -0 0 13.1091 -7.252197 9.165237 3.78961 6.181958 -20.65455 -2.861221 -96.04755 38.39613 23.39981 0 0 -25.3177 -5.508449 15.87452 22.67768
0.8907634 100.1861 15.85342 -1.54802 2.974727 0.5840149 7.016115 -35.50532 5.250275 -0 18.95548 -0 -6.969532 -4.248344 -2.923503 -4.68276 14.93755 -18.9089 -0 8.393201 -0 -1.854077 -26.07981 16.9247 -0.7180081 -0.6661907 3.02834 1.990918 7.133106 -7.836362 0.9873768 22.01372 8.555869 4.845255 -24.23995 9.047678 6.071421 -16.61257 10.9345 88.56391 36.04392 -23.81568 -0 0 12.62461 -7.425829 9.161752 4.121616 5.854917 -20.43968 -2.902887 -95.54736 37.90426 22.92173 0 0 -24.98657 -5.155062 15.58075 22.069
0.9745244 99.33462 20.12537 -1.787004 3.797119 1.046889 7.224498 -36.22599 4.655967 -0 15.88037 -0 -6.947597 -3.289271 -2.641806 -4.539206 15.67428 -17.99134 -0 11.04664 -0 -3.053263 -25.01389 14.99008 -0.8654598 -0.5458337 2.948133 2.1996 7.118232 -7.861321 0.9259178 22.08078 8.462923 4.709052 -24.42137 8.948415 6.020899 -16.53979 11.02203 88.34705 36.15683 -23.45559 -0 0 12.23792 -7.783719 9.247041 4.514818 5.54042 -20.25162 -2.928517 -95.1096 37.43068 22.55791 0 0 -24.61778 -4.913957 15.33905 21.62802
1.038596 98.7579 25.07687 -2.135322 4.429146 1.581554 7.555772 -35.56495 4.34902 -0 14.14713 -0 -6.904177 -2.886096 -2.548345 -4.274388 16.1568 -16.93026 -0 15.33475 -0 -4.828046 -22.7156 12.82817 -1.009885 -0.4522096 2.958471 2.325524 7.140595 -7.846429 0.88079 22.16091 8.333977 4.574554 -24.49893 8.801641 5.947015 -16.53806 11.09528 88.08688 36.35623 -22.98225 -0 0 11.95595 -8.367375 9.452429 4.973586 5.245039 -20.10018 -2.934382 -94.7298 36.96716 22.3186 0 0 -24.22756 -4.756979 15.1514 21.34384
1.082217 98.59851 30.65705 -2.608662 4.680315 2.104203 8.08034 -33.33293 4.371551 -0 14.0799 -0 -6.980237 -3.090022 -2.639477 -3.839357 15.98387 -15.69256 -0 21.57827 -0 -7.017291 -19.1006 10.69822 -1.144025 -0.3822295 3.080092 2.352571 7.20803 -7.778831 0.8546748 22.25006 8.17528 4.445375 -24.46757 8.616278 5.841198 -16.61664 11.14861 87.77568 36.67134 -22.36977 -0 0 11.78354 -9.228417 9.815968 5.508824 4.976693 -19.99465 -2.912386 -94.3926 36.48244 22.20383 0 0 -23.82857 -4.633947 15.01064 21.17833
1.114015 98.91928 36.67957 -3.111593 4.341109 2.47852 8.680686 -29.49132 4.566476 -0 15.47354 -0 -7.353758 -3.918763 -2.829289 -3.268084 14.57845 -14.29931 -0 29.78259 -0 -9.209468 -14.48402 8.993918 -1.260927 -0.3302903 3.328747 2.269977 7.324854 -7.646519 0.8488702 22.33871 7.998339 4.327009 -24.32881 8.405602 5.69641 -16.78034 11.17807 87.39549 37.116 -21.58564 -0 0 11.72816 -10.41303 10.36894 6.135275 4.745413 -19.9403 -2.851193 -94.07779 35.92724 22.20455 0 0 -23.42479 -4.481276 14.89997 21.06897
1.154792 99.65997 42.82199 -3.390307 3.293332 2.547148 8.997429 -24.26516 4.566233 -0 17.28352 -0 -8.104532 -5.355996 -2.955152 -2.741824 11.36353 -12.861 -0 39.39417 -0 -10.78978 -9.757093 8.093262 -1.358433 -0.2874178 3.706386 2.081439 7.489586 -7.442465 0.8612366 22.41451 7.817017 4.222923 -24.09471 8.184047 5.509901 -17.02553 11.18549 86.9153 37.67133 -20.59265 -0 0 11.79607 -11.94532 11.11663 6.874295 4.555564 -19.92957 -2.741642 -93.76081 35.23811 22.2991 0 0 -22.99881 -4.233047 14.78837 20.93011
